<?xml version="1.0" standalone="no"?><!DOCTYPE svg PUBLIC "-//W3C//DTD SVG 1.1//EN" "http://www.w3.org/Graphics/SVG/1.1/DTD/svg11.dtd"><svg t="1724898294193" class="icon" viewBox="0 0 1024 1024" version="1.1" xmlns="http://www.w3.org/2000/svg" p-id="1835" xmlns:xlink="http://www.w3.org/1999/xlink" width="200" height="200"><path d="M0 0h1024v1024H0V0z" fill="#202425" opacity=".01" p-id="1836"></path><path d="M53.009067 502.5792a34.133333 34.133333 0 0 0-18.875734 30.5152v73.216a34.133333 34.133333 0 0 0 41.301334 33.3824l429.397333-92.023467a34.133333 34.133333 0 0 1 14.336 0l429.397333 92.023467a34.133333 34.133333 0 0 0 41.301334-33.3824v-73.216a34.133333 34.133333 0 0 0-18.875734-30.5152l-443.733333-221.866667a34.133333 34.133333 0 0 0-30.5152 0l-443.733333 221.866667z m244.053333 349.4912a34.133333 34.133333 0 0 0-23.995733 32.597333V938.666667a17.066667 17.066667 0 0 0 17.066666 17.066666h443.733334a17.066667 17.066667 0 0 0 17.066666-17.066666v-53.998934a34.133333 34.133333 0 0 0-23.9616-32.597333l-204.8-63.829333a34.133333 34.133333 0 0 0-20.343466 0l-204.8 63.829333z" fill="#FFAA44" p-id="1837"></path><path d="M409.6 136.533333a102.4 102.4 0 1 1 204.8 0v678.980267a136.533333 136.533333 0 0 1-19.456 70.2464l-53.6576 89.429333a34.133333 34.133333 0 0 1-58.5728 0l-53.6576-89.429333a136.533333 136.533333 0 0 1-19.456-70.2464V136.533333z" fill="#11AA66" p-id="1838"></path></svg>